<?xml version="1.0" encoding="iso-8859-1"?>
<!-- Generator: Adobe Illustrator 19.0.0, SVG Export Plug-In . SVG Version: 6.00 Build 0)  -->
<svg version="1.1" id="Capa_1" xmlns="http://www.w3.org/2000/svg" xmlns:xlink="http://www.w3.org/1999/xlink" x="0px" y="0px"
	 viewBox="0 0 480 480" style="enable-background:new 0 0 480 480;" xml:space="preserve">
<g>
	<g>
		<path d="M224,256c-12.304,0-23.496,4.688-32,12.32V216c0-13.232-10.768-24-24-24H56c-13.232,0-24,10.768-24,24v65.472
			c-2.512-0.896-5.184-1.472-8-1.472c-13.232,0-24,10.768-24,24c0,6.168,2.408,11.744,6.24,16C2.408,324.256,0,329.832,0,336
			c0,6.168,2.408,11.744,6.24,16C2.408,356.256,0,361.832,0,368c0,6.168,2.408,11.744,6.24,16C2.408,388.256,0,393.832,0,400
			c0,13.232,10.768,24,24,24c2.816,0,5.488-0.576,8-1.472V424c0,13.232,10.768,24,24,24h16v32h16v-32h80c13.232,0,24-10.768,24-24
			v-96v-24c0-14.88,10.208-27.424,24-30.992V480h16V264C232,259.584,228.424,256,224,256z M24,408c-4.416,0-8-3.592-8-8
			c0-4.408,3.584-8,8-8s8,3.592,8,8C32,404.408,28.416,408,24,408z M24,376c-4.416,0-8-3.592-8-8c0-4.408,3.584-8,8-8s8,3.592,8,8
			C32,372.408,28.416,376,24,376z M24,344c-4.416,0-8-3.592-8-8c0-4.408,3.584-8,8-8s8,3.592,8,8C32,340.408,28.416,344,24,344z
			 M24,312c-4.416,0-8-3.592-8-8c0-4.408,3.584-8,8-8s8,3.592,8,8C32,308.408,28.416,312,24,312z M176,424c0,4.408-3.584,8-8,8H56
			c-4.416,0-8-3.592-8-8v-16h128V424z M176,304v24v64H48V248h128V304z M176,232H48v-16c0-4.408,3.584-8,8-8h112c4.416,0,8,3.592,8,8
			V232z"/>
	</g>
</g>
<g>
	<g>
		<path d="M344,0c-74.992,0-136,61.008-136,136s61.008,136,136,136s136-61.008,136-136S418.992,0,344,0z M344,256
			c-66.168,0-120-53.832-120-120S277.832,16,344,16s120,53.832,120,120S410.168,256,344,256z"/>
	</g>
</g>
<g>
	<g>
		<path d="M344,32c-57.344,0-104,46.656-104,104s46.656,104,104,104s104-46.656,104-104S401.344,32,344,32z M344,224
			c-48.52,0-88-39.48-88-88s39.48-88,88-88c48.52,0,88,39.48,88,88S392.52,224,344,224z"/>
	</g>
</g>
<g>
	<g>
		<path d="M352,128h-16c-8.824,0-16-7.176-16-16c0-8.824,7.176-16,16-16h16c8.824,0,16,7.176,16,16h16c0-17.648-14.352-32-32-32V64
			h-16v16c-17.648,0-32,14.352-32,32s14.352,32,32,32h16c8.824,0,16,7.176,16,16c0,8.824-7.176,16-16,16h-16
			c-8.824,0-16-7.176-16-16h-16c0,17.648,14.352,32,32,32v16h16v-16c17.648,0,32-14.352,32-32S369.648,128,352,128z"/>
	</g>
</g>
<g>
	<g>
		<rect x="272" y="128" width="16" height="16"/>
	</g>
</g>
<g>
	<g>
		<rect x="400" y="128" width="16" height="16"/>
	</g>
</g>
<g>
	<g>
		<rect x="112" y="96" width="16" height="16"/>
	</g>
</g>
<g>
	<g>
		<rect x="144" y="96" width="16" height="16"/>
	</g>
</g>
<g>
	<g>
		<rect x="176" y="96" width="16" height="16"/>
	</g>
</g>
<g>
	<g>
		<rect x="80" y="96" width="16" height="16"/>
	</g>
</g>
<g>
	<g>
		<rect x="80" y="128" width="16" height="16"/>
	</g>
</g>
<g>
	<g>
		<rect x="80" y="160" width="16" height="16"/>
	</g>
</g>
<g>
	<g>
		<rect x="280" y="400" width="16" height="16"/>
	</g>
</g>
<g>
	<g>
		<rect x="248" y="400" width="16" height="16"/>
	</g>
</g>
<g>
	<g>
		<rect x="312" y="400" width="16" height="16"/>
	</g>
</g>
<g>
	<g>
		<rect x="344" y="400" width="16" height="16"/>
	</g>
</g>
<g>
	<g>
		<rect x="376" y="400" width="16" height="16"/>
	</g>
</g>
<g>
	<g>
		<rect x="408" y="400" width="16" height="16"/>
	</g>
</g>
<g>
	<g>
		<rect x="408" y="368" width="16" height="16"/>
	</g>
</g>
<g>
	<g>
		<rect x="408" y="336" width="16" height="16"/>
	</g>
</g>
<g>
	<g>
		<rect x="408" y="304" width="16" height="16"/>
	</g>
</g>
<g>
	<g>
		<rect x="408" y="272" width="16" height="16"/>
	</g>
</g>
<g>
	<g>
		<path d="M146.344,282.344L104,324.688l-18.344-18.344l-11.312,11.312l24,24c1.56,1.56,3.608,2.344,5.656,2.344
			s4.096-0.784,5.656-2.344l48-48L146.344,282.344z"/>
	</g>
</g>
<g>
</g>
<g>
</g>
<g>
</g>
<g>
</g>
<g>
</g>
<g>
</g>
<g>
</g>
<g>
</g>
<g>
</g>
<g>
</g>
<g>
</g>
<g>
</g>
<g>
</g>
<g>
</g>
<g>
</g>
</svg>
