<?xml version="1.0" encoding="iso-8859-1"?>
<!-- Generator: Adobe Illustrator 19.0.0, SVG Export Plug-In . SVG Version: 6.00 Build 0)  -->
<svg version="1.1" id="Capa_1" xmlns="http://www.w3.org/2000/svg" xmlns:xlink="http://www.w3.org/1999/xlink" x="0px" y="0px"
	 viewBox="0 0 512 512" style="enable-background:new 0 0 512 512;" xml:space="preserve">
<g>
	<g>
		<g>
			<path d="M8,296h104c4.8,0,8-3.2,8-8s-3.2-8-8-8H16V88h344v120c0,4.8,3.2,8,8,8h16c4.8,0,8-3.2,8-8s-3.2-8-8-8h-8V80
				c0-4.8-3.2-8-8-8H8c-4.8,0-8,3.2-8,8v208C0,292.8,3.2,296,8,296z"/>
			<path d="M128,167.2c0,31.2,24.8,56,56,56s56-24.8,56-56c0-31.2-24.8-56-56-56S128,136.8,128,167.2z M224,167.2
				c0,22.4-17.6,40-40,40c-22.4,0-40-17.6-40-40c0-22.4,17.6-40,40-40C206.4,127.2,224,145.6,224,167.2z"/>
			<path d="M149.6,474.4l-24-24c-3.2-3.2-8-3.2-11.2,0s-3.2,8,0,11.2l10.4,10.4h-32C63.2,472,40,448.8,40,419.2v-40l10.4,10.4
				c1.6,1.6,3.2,2.4,5.6,2.4s4-0.8,5.6-2.4c3.2-3.2,3.2-8,0-11.2l-24-24c-0.8-0.8-1.6-1.6-2.4-1.6c-1.6-0.8-4-0.8-6.4,0
				c-0.8,0.8-1.6,0.8-2.4,1.6l-24,24c-3.2,3.2-3.2,8,0,11.2c3.2,3.2,8,3.2,11.2,0L24,379.2v40c0,37.6,30.4,68.8,68.8,68.8h32
				l-10.4,10.4c-3.2,3.2-3.2,8,0,11.2c1.6,1.6,4,2.4,5.6,2.4s4-0.8,5.6-2.4l24-24c0.8-0.8,1.6-1.6,1.6-2.4c0.8-1.6,0.8-4,0-6.4
				C150.4,476,150.4,475.2,149.6,474.4z"/>
			<path d="M48,164c0,15.2,12.8,28,28,28s28-12.8,28-28s-12.8-28-28-28S48,148.8,48,164z M88,164c0,6.4-5.6,12-12,12s-12-5.6-12-12
				c0-6.4,5.6-12,12-12S88,157.6,88,164z"/>
			<path d="M264,164c0,15.2,12.8,28,28,28s28-12.8,28-28s-12.8-28-28-28S264,148.8,264,164z M304,164c0,6.4-5.6,12-12,12
				c-6.4,0-12-5.6-12-12c0-6.4,5.6-12,12-12C298.4,152,304,157.6,304,164z"/>
			<path d="M504,232H144c-4.8,0-8,3.2-8,8v200c0,4.8,3.2,8,8,8h360c4.8,0,8-3.2,8-8V240C512,235.2,508.8,232,504,232z M496,432H152
				V248h344V432z"/>
			<path d="M320,391.2c31.2,0,56-24.8,56-56s-24.8-56-56-56s-56,24.8-56,56S288.8,391.2,320,391.2z M320,295.2c22.4,0,40,17.6,40,40
				c0,22.4-17.6,40-40,40c-22.4,0-40-17.6-40-40C280,312.8,297.6,295.2,320,295.2z"/>
			<path d="M212,360c15.2,0,28-12.8,28-28s-12.8-28-28-28s-28,12.8-28,28S196.8,360,212,360z M212,320c6.4,0,12,5.6,12,12
				c0,6.4-5.6,12-12,12c-6.4,0-12-5.6-12-12C200,325.6,205.6,320,212,320z"/>
			<path d="M428,360c15.2,0,28-12.8,28-28s-12.8-28-28-28s-28,12.8-28,28S412.8,360,428,360z M428,320c6.4,0,12,5.6,12,12
				c0,6.4-5.6,12-12,12c-6.4,0-12-5.6-12-12C416,325.6,421.6,320,428,320z"/>
			<path d="M362.4,37.6l24,24c1.6,1.6,4,2.4,5.6,2.4c2.4,0,4-0.8,5.6-2.4c3.2-3.2,3.2-8,0-11.2L387.2,40h32C448,40,472,64,472,92.8
				v40l-10.4-10.4c-3.2-3.2-8-3.2-11.2,0c-3.2,3.2-3.2,8,0,11.2l24,24c1.6,1.6,3.2,2.4,5.6,2.4c2.4,0,4-0.8,5.6-2.4l24-24
				c3.2-3.2,3.2-8,0-11.2c-3.2-3.2-8-3.2-11.2,0L488,132.8v-40c0-37.6-30.4-68.8-68.8-68.8h-32l10.4-10.4c3.2-3.2,3.2-8,0-11.2
				c-3.2-3.2-8-3.2-11.2,0l-24,24c-0.8,0.8-1.6,1.6-1.6,2.4c-0.8,0.8-0.8,1.6-0.8,3.2c0,0.8,0,2.4,0.8,3.2S361.6,36.8,362.4,37.6z"
				/>
			<polygon points="44.8,46.4 56,35.2 67.2,46.4 78.4,35.2 67.2,24 78.4,12.8 67.2,1.6 56,12.8 44.8,1.6 33.6,12.8 44.8,24 
				33.6,35.2 			"/>
			<path d="M400,120c-4.8,0-8,3.2-8,8s3.2,8,8,8h24c4.8,0,8-3.2,8-8s-3.2-8-8-8H400z"/>
			<path d="M304,472h-24c-4.8,0-8,3.2-8,8s3.2,8,8,8h24c4.8,0,8-3.2,8-8S308.8,472,304,472z"/>
			<path d="M440,472h-24c-4.8,0-8,3.2-8,8s3.2,8,8,8h24c4.8,0,8-3.2,8-8S444.8,472,440,472z"/>
			<path d="M216,40h24c4.8,0,8-3.2,8-8s-3.2-8-8-8h-24c-4.8,0-8,3.2-8,8S211.2,40,216,40z"/>
		</g>
	</g>
</g>
<g>
</g>
<g>
</g>
<g>
</g>
<g>
</g>
<g>
</g>
<g>
</g>
<g>
</g>
<g>
</g>
<g>
</g>
<g>
</g>
<g>
</g>
<g>
</g>
<g>
</g>
<g>
</g>
<g>
</g>
</svg>
