<?xml version="1.0" encoding="iso-8859-1"?>
<!-- Generator: Adobe Illustrator 19.0.0, SVG Export Plug-In . SVG Version: 6.00 Build 0)  -->
<svg version="1.1" id="Capa_1" xmlns="http://www.w3.org/2000/svg" xmlns:xlink="http://www.w3.org/1999/xlink" x="0px" y="0px"
	 viewBox="0 0 480 480" style="enable-background:new 0 0 480 480;" xml:space="preserve">
<g>
	<g>
		<circle cx="392" cy="347.996" r="16"/>
	</g>
</g>
<g>
	<g>
		<circle cx="72" cy="347.996" r="16"/>
	</g>
</g>
<g>
	<g>
		<circle cx="152" cy="347.996" r="16"/>
	</g>
</g>
<g>
	<g>
		<path d="M472.008,267.996c-0.003,0-0.006,0-0.008,0h-8v-120c0-0.258-0.123-0.477-0.147-0.729c-0.05-0.588-0.167-1.168-0.349-1.73
			c-0.123-0.396-0.279-0.781-0.465-1.151c-0.48-0.85-1.077-1.629-1.774-2.314c-0.413-0.345-0.861-0.646-1.335-0.899
			c-0.38-0.244-0.78-0.454-1.197-0.627c-0.126-0.046-0.221-0.142-0.35-0.183l-128-40c-4.212-1.321-8.696,1.023-10.017,5.235
			c-0.243,0.776-0.367,1.585-0.366,2.398v160h-16v-168c0.002-4.416-3.576-7.998-7.992-8c-0.003,0-0.006,0-0.008,0H8
			c-4.416-0.002-7.998,3.575-8,7.991c0,0.003,0,0.006,0,0.009v248c-0.002,4.416,3.575,7.998,7.991,8c0.003,0,0.006,0,0.009,0h24.809
			c4.418,21.645,25.547,35.61,47.192,31.192c18.844-3.847,31.861-20.359,32.001-38.851c0.024,2.528,0.282,5.09,0.806,7.659
			c4.418,21.645,25.547,35.61,47.192,31.192c15.709-3.207,27.985-15.483,31.192-31.192h161.618
			c4.418,21.645,25.546,35.61,47.19,31.192c15.709-3.206,27.986-15.483,31.192-31.192H472c4.416,0.002,7.998-3.576,8-7.992
			c0-0.003,0-0.006,0-0.008v-72C480.002,271.58,476.424,267.998,472.008,267.996z M16,107.996h272v160H16V107.996z M72,371.996
			c-13.255,0-24-10.745-24-24c0.014-13.249,10.751-23.986,24-24c13.255,0,24,10.745,24,24S85.255,371.996,72,371.996z M152,371.996
			c-13.255,0-24-10.745-24-24s10.745-24,24-24s24,10.745,24,24C175.986,361.245,165.249,371.982,152,371.996z M320,339.996H191.191
			c-4.418-21.645-25.547-35.61-47.192-31.192c-18.844,3.847-31.861,20.359-32.001,38.851c-0.024-2.528-0.282-5.09-0.806-7.659
			c-4.418-21.645-25.547-35.61-47.192-31.192c-15.709,3.207-27.985,15.483-31.192,31.192H16v-24h16c4.418,0,8-3.582,8-8
			s-3.582-8-8-8H16v-16h304V339.996z M336,118.879l67.578,21.117H336V118.879z M336,155.996h112v16h-88
			c-4.416-0.002-7.998,3.575-8,7.991c0,0.003,0,0.006,0,0.009v48c-0.002,4.416,3.576,7.998,7.991,8c0.003,0,0.006,0,0.009,0h88v32
			H336V155.996z M448,187.996v32h-80v-32H448z M392,371.996c-13.255,0-24-10.745-24-24s10.745-24,24-24s24,10.745,24,24
			C415.986,361.245,405.249,371.982,392,371.996z M464,299.996h-16c-4.418,0-8,3.582-8,8s3.582,8,8,8h16v24h-32.809
			c-4.418-21.645-25.546-35.61-47.19-31.192c-15.709,3.206-27.986,15.483-31.192,31.192H336v-56h128V299.996z"/>
	</g>
</g>
<g>
	<g>
		<path d="M56.008,123.996c-0.003,0-0.005,0-0.008,0c-4.416-0.002-7.998,3.575-8,7.991c0,0.003,0,0.006,0,0.009v112
			c0,4.418,3.582,8,8,8s8-3.582,8-8v-112C64.002,127.58,60.424,123.998,56.008,123.996z"/>
	</g>
</g>
<g>
	<g>
		<path d="M88.008,123.996c-0.003,0-0.005,0-0.008,0c-4.416-0.002-7.998,3.575-8,7.991c0,0.003,0,0.006,0,0.009v112
			c0,4.418,3.582,8,8,8s8-3.582,8-8v-112C96.002,127.58,92.424,123.998,88.008,123.996z"/>
	</g>
</g>
<g>
	<g>
		<path d="M120.008,123.996c-0.003,0-0.005,0-0.008,0c-4.416-0.002-7.998,3.575-8,7.991c0,0.003,0,0.006,0,0.009v112
			c0,4.418,3.582,8,8,8s8-3.582,8-8v-112C128.002,127.58,124.424,123.998,120.008,123.996z"/>
	</g>
</g>
<g>
	<g>
		<path d="M152.008,123.996c-0.003,0-0.005,0-0.008,0c-4.416-0.002-7.998,3.575-8,7.991c0,0.003,0,0.006,0,0.009v112
			c0,4.418,3.582,8,8,8s8-3.582,8-8v-112C160.002,127.58,156.424,123.998,152.008,123.996z"/>
	</g>
</g>
<g>
	<g>
		<path d="M184.008,123.996c-0.003,0-0.005,0-0.008,0c-4.416-0.002-7.998,3.575-8,7.991c0,0.003,0,0.006,0,0.009v112
			c0,4.418,3.582,8,8,8s8-3.582,8-8v-112C192.002,127.58,188.424,123.998,184.008,123.996z"/>
	</g>
</g>
<g>
	<g>
		<path d="M216.008,123.996c-0.003,0-0.005,0-0.008,0c-4.416-0.002-7.998,3.575-8,7.991c0,0.003,0,0.006,0,0.009v112
			c0,4.418,3.582,8,8,8s8-3.582,8-8v-112C224.002,127.58,220.424,123.998,216.008,123.996z"/>
	</g>
</g>
<g>
	<g>
		<path d="M248.008,123.996c-0.003,0-0.006,0-0.008,0c-4.416-0.002-7.998,3.575-8,7.991c0,0.003,0,0.006,0,0.009v112
			c0,4.418,3.582,8,8,8s8-3.582,8-8v-112C256.002,127.58,252.424,123.998,248.008,123.996z"/>
	</g>
</g>
<g>
</g>
<g>
</g>
<g>
</g>
<g>
</g>
<g>
</g>
<g>
</g>
<g>
</g>
<g>
</g>
<g>
</g>
<g>
</g>
<g>
</g>
<g>
</g>
<g>
</g>
<g>
</g>
<g>
</g>
</svg>
