<?xml version="1.0" encoding="iso-8859-1"?>
<!-- Generator: Adobe Illustrator 19.0.0, SVG Export Plug-In . SVG Version: 6.00 Build 0)  -->
<svg version="1.1" id="Capa_1" xmlns="http://www.w3.org/2000/svg" xmlns:xlink="http://www.w3.org/1999/xlink" x="0px" y="0px"
	 viewBox="0 0 480 480" style="enable-background:new 0 0 480 480;" xml:space="preserve">
<g>
	<g>
		<path d="M472,68H8c-4.418,0-8,3.582-8,8v232c0,4.418,3.582,8,8,8h464c4.418,0,8-3.582,8-8V76C480,71.582,476.418,68,472,68z
			 M464,300H16V84h448V300z"/>
	</g>
</g>
<g>
	<g>
		<path d="M160,332c-22.091,0-40,17.909-40,40c0,22.091,17.909,40,40,40s40-17.909,40-40C199.974,349.92,182.08,332.026,160,332z
			 M160,396c-13.255,0-24-10.745-24-24s10.745-24,24-24s24,10.745,24,24S173.255,396,160,396z"/>
	</g>
</g>
<g>
	<g>
		<rect x="152" y="364" width="16" height="16"/>
	</g>
</g>
<g>
	<g>
		<path d="M80,332c-22.091,0-40,17.909-40,40c0,22.091,17.909,40,40,40s40-17.909,40-40C119.974,349.92,102.08,332.026,80,332z
			 M80,396c-13.255,0-24-10.745-24-24s10.745-24,24-24s24,10.745,24,24S93.255,396,80,396z"/>
	</g>
</g>
<g>
	<g>
		<rect x="72" y="364" width="16" height="16"/>
	</g>
</g>
<g>
	<g>
		<path d="M320,332c-22.091,0-40,17.909-40,40c0,22.091,17.909,40,40,40c22.091,0,40-17.909,40-40
			C359.974,349.92,342.08,332.026,320,332z M320,396c-13.255,0-24-10.745-24-24s10.745-24,24-24s24,10.745,24,24
			S333.255,396,320,396z"/>
	</g>
</g>
<g>
	<g>
		<rect x="312" y="364" width="16" height="16"/>
	</g>
</g>
<g>
	<g>
		<path d="M400,332c-22.091,0-40,17.909-40,40c0,22.091,17.909,40,40,40c22.091,0,40-17.909,40-40
			C439.974,349.92,422.08,332.026,400,332z M400,396c-13.255,0-24-10.745-24-24s10.745-24,24-24s24,10.745,24,24
			S413.255,396,400,396z"/>
	</g>
</g>
<g>
	<g>
		<rect x="392" y="364" width="16" height="16"/>
	</g>
</g>
<g>
	<g>
		<polygon points="248,364 248,340 232,340 232,364 216,364 216,380 264,380 264,364 		"/>
	</g>
</g>
<g>
	<g>
		<rect x="448" y="332" width="32" height="16"/>
	</g>
</g>
<g>
	<g>
		<rect y="332" width="32" height="16"/>
	</g>
</g>
<g>
	<g>
		<rect x="40" y="100" width="16" height="184"/>
	</g>
</g>
<g>
	<g>
		<rect x="72" y="100" width="16" height="184"/>
	</g>
</g>
<g>
	<g>
		<rect x="104" y="100" width="16" height="184"/>
	</g>
</g>
<g>
	<g>
		<rect x="136" y="100" width="16" height="184"/>
	</g>
</g>
<g>
	<g>
		<rect x="168" y="100" width="16" height="184"/>
	</g>
</g>
<g>
	<g>
		<rect x="200" y="100" width="16" height="184"/>
	</g>
</g>
<g>
	<g>
		<rect x="232" y="100" width="16" height="184"/>
	</g>
</g>
<g>
	<g>
		<rect x="264" y="100" width="16" height="184"/>
	</g>
</g>
<g>
	<g>
		<rect x="296" y="100" width="16" height="184"/>
	</g>
</g>
<g>
	<g>
		<rect x="328" y="100" width="16" height="184"/>
	</g>
</g>
<g>
	<g>
		<rect x="360" y="100" width="16" height="184"/>
	</g>
</g>
<g>
	<g>
		<rect x="392" y="100" width="16" height="184"/>
	</g>
</g>
<g>
	<g>
		<rect x="424" y="100" width="16" height="184"/>
	</g>
</g>
<g>
</g>
<g>
</g>
<g>
</g>
<g>
</g>
<g>
</g>
<g>
</g>
<g>
</g>
<g>
</g>
<g>
</g>
<g>
</g>
<g>
</g>
<g>
</g>
<g>
</g>
<g>
</g>
<g>
</g>
</svg>
