<svg width="62" height="70" viewBox="0 0 62 70" fill="none" xmlns="http://www.w3.org/2000/svg">
<rect width="62" height="70" fill="black" fill-opacity="0"/>
<rect width="2.69565" height="2.73438" fill="black" fill-opacity="0" transform="translate(40.4346 16.4062)"/>
<rect width="2.69565" height="2.73438" fill="black" fill-opacity="0" transform="translate(40.4346 16.4062)"/>
<path d="M41.7824 16.4062C41.0384 16.4062 40.4346 17.0188 40.4346 17.7734C40.4346 18.5281 41.0384 19.1406 41.7824 19.1406C42.5264 19.1406 43.1302 18.5281 43.1302 17.7734C43.1302 17.0188 42.5264 16.4062 41.7824 16.4062Z" fill="#E31129"/>
<rect width="18.8696" height="2.73438" fill="black" fill-opacity="0" transform="translate(18.8696 16.4062)"/>
<rect width="18.8696" height="2.73438" fill="black" fill-opacity="0" transform="translate(18.8696 16.4062)"/>
<path d="M36.3914 16.4062H20.2175C19.4731 16.4062 18.8696 17.0185 18.8696 17.7734C18.8696 18.5284 19.4731 19.1406 20.2175 19.1406H36.3914C37.1356 19.1406 37.7392 18.5284 37.7392 17.7734C37.7392 17.0185 37.1356 16.4062 36.3914 16.4062Z" fill="#E31129"/>
<rect width="62" height="70" fill="black" fill-opacity="0"/>
<rect width="62" height="70" fill="black" fill-opacity="0"/>
<path d="M57.9565 8.20312H53.913V4.10156C53.913 1.83996 52.0991 0 49.8696 0C47.64 0 45.8261 1.83996 45.8261 4.10156V8.20312H16.1739V4.10156C16.1739 1.83996 14.36 0 12.1304 0C9.90086 0 8.08696 1.83996 8.08696 4.10156V8.20312H4.04348C1.8139 8.20312 0 10.0431 0 12.3047V65.8984C0 68.16 1.8139 70 4.04348 70H57.9565C60.1861 70 62 68.16 62 65.8984V12.3047C62 10.0431 60.1861 8.20312 57.9565 8.20312ZM48.5217 4.10156C48.5217 3.3477 49.1264 2.73438 49.8696 2.73438C50.6128 2.73438 51.2174 3.3477 51.2174 4.10156V12.3047C51.2174 13.0594 50.6137 13.6719 49.8696 13.6719C49.1264 13.6719 48.5217 13.0586 48.5217 12.3047V4.10156ZM10.7826 4.10156C10.7826 3.3477 11.3872 2.73438 12.1304 2.73438C12.8736 2.73438 13.4783 3.3477 13.4783 4.10156V12.3047C13.4783 13.0595 12.8746 13.6719 12.1304 13.6719C11.3872 13.6719 10.7826 13.0586 10.7826 12.3047V4.10156ZM59.3043 65.8984C59.3043 66.6523 58.6997 67.2656 57.9565 67.2656H4.04348C3.30029 67.2656 2.69565 66.6523 2.69565 65.8984V24.6094H59.3043V65.8984ZM59.3043 21.875H2.69565V12.3047C2.69565 11.5508 3.30029 10.9375 4.04348 10.9375H8.08696V12.3047C8.08696 14.5663 9.90086 16.4062 12.1304 16.4062C14.3645 16.4062 16.1739 14.5709 16.1739 12.3047V10.9375H45.8261V12.3047C45.8261 14.5663 47.64 16.4062 49.8696 16.4062C52.1036 16.4062 53.913 14.5708 53.913 12.3047V10.9375H57.9565C58.6997 10.9375 59.3043 11.5508 59.3043 12.3047V21.875Z" fill="#E31129"/>
<rect width="13.4783" height="8.20312" fill="black" fill-opacity="0" transform="translate(8.08691 30.8984)"/>
<rect width="13.4783" height="8.20312" fill="black" fill-opacity="0" transform="translate(8.08691 30.8984)"/>
<path d="M20.2173 30.8984H9.43474C8.69034 30.8984 8.08691 31.5107 8.08691 32.2656V37.7344C8.08691 38.4893 8.69034 39.1016 9.43474 39.1016H20.2173C20.9618 39.1016 21.5652 38.4893 21.5652 37.7344V32.2656C21.5652 31.5107 20.9618 30.8984 20.2173 30.8984ZM18.8695 36.3672H10.7826V33.6328H18.8695V36.3672Z" fill="#E31129"/>
<rect width="13.4783" height="8.20312" fill="black" fill-opacity="0" transform="translate(24.2607 30.8984)"/>
<rect width="13.4783" height="8.20312" fill="black" fill-opacity="0" transform="translate(24.2607 30.8984)"/>
<path d="M36.3912 30.8984H25.6086C24.8642 30.8984 24.2607 31.5107 24.2607 32.2656V37.7344C24.2607 38.4893 24.8642 39.1016 25.6086 39.1016H36.3912C37.1354 39.1016 37.739 38.4893 37.739 37.7344V32.2656C37.739 31.5107 37.1354 30.8984 36.3912 30.8984ZM35.0434 36.3672H26.9564V33.6328H35.0434V36.3672Z" fill="#E31129"/>
<rect width="13.4783" height="8.20312" fill="black" fill-opacity="0" transform="translate(40.4346 30.8984)"/>
<rect width="13.4783" height="8.20312" fill="black" fill-opacity="0" transform="translate(40.4346 30.8984)"/>
<path d="M52.565 30.8984H41.7824C41.0381 30.8984 40.4346 31.5107 40.4346 32.2656V37.7344C40.4346 38.4893 41.0381 39.1016 41.7824 39.1016H52.565C53.3093 39.1016 53.9128 38.4893 53.9128 37.7344V32.2656C53.9128 31.5107 53.3093 30.8984 52.565 30.8984ZM51.2172 36.3672H43.1302V33.6328H51.2172V36.3672Z" fill="#E31129"/>
<rect width="13.4783" height="8.20312" fill="black" fill-opacity="0" transform="translate(8.08691 41.8359)"/>
<rect width="13.4783" height="8.20312" fill="black" fill-opacity="0" transform="translate(8.08691 41.8359)"/>
<path d="M20.2173 41.8359H9.43474C8.69034 41.8359 8.08691 42.4482 8.08691 43.2031V48.6719C8.08691 49.4268 8.69034 50.0391 9.43474 50.0391H20.2173C20.9618 50.0391 21.5652 49.4268 21.5652 48.6719V43.2031C21.5652 42.4482 20.9618 41.8359 20.2173 41.8359ZM18.8695 47.3047H10.7826V44.5703H18.8695V47.3047Z" fill="#E31129"/>
<rect width="13.4783" height="8.20312" fill="black" fill-opacity="0" transform="translate(24.2607 41.8359)"/>
<rect width="13.4783" height="8.20312" fill="black" fill-opacity="0" transform="translate(24.2607 41.8359)"/>
<path d="M36.3912 41.8359H25.6086C24.8642 41.8359 24.2607 42.4482 24.2607 43.2031V48.6719C24.2607 49.4268 24.8642 50.0391 25.6086 50.0391H36.3912C37.1354 50.0391 37.739 49.4268 37.739 48.6719V43.2031C37.739 42.4482 37.1354 41.8359 36.3912 41.8359ZM35.0434 47.3047H26.9564V44.5703H35.0434V47.3047Z" fill="#E31129"/>
<rect width="13.4783" height="8.20312" fill="black" fill-opacity="0" transform="translate(40.4346 41.8359)"/>
<rect width="13.4783" height="8.20312" fill="black" fill-opacity="0" transform="translate(40.4346 41.8359)"/>
<path d="M52.565 41.8359H41.7824C41.0381 41.8359 40.4346 42.4482 40.4346 43.2031V48.6719C40.4346 49.4268 41.0381 50.0391 41.7824 50.0391H52.565C53.3093 50.0391 53.9128 49.4268 53.9128 48.6719V43.2031C53.9128 42.4482 53.3093 41.8359 52.565 41.8359ZM51.2172 47.3047H43.1302V44.5703H51.2172V47.3047Z" fill="#E31129"/>
<rect width="13.4783" height="8.20312" fill="black" fill-opacity="0" transform="translate(8.08691 52.7734)"/>
<rect width="13.4783" height="8.20312" fill="black" fill-opacity="0" transform="translate(8.08691 52.7734)"/>
<path d="M20.2173 52.7734H9.43474C8.69034 52.7734 8.08691 53.3857 8.08691 54.1406V59.6094C8.08691 60.3643 8.69034 60.9766 9.43474 60.9766H20.2173C20.9618 60.9766 21.5652 60.3643 21.5652 59.6094V54.1406C21.5652 53.3857 20.9618 52.7734 20.2173 52.7734ZM18.8695 58.2422H10.7826V55.5078H18.8695V58.2422Z" fill="#E31129"/>
<rect width="13.4783" height="8.20312" fill="black" fill-opacity="0" transform="translate(24.2607 52.7734)"/>
<rect width="13.4783" height="8.20312" fill="black" fill-opacity="0" transform="translate(24.2607 52.7734)"/>
<path d="M36.3912 52.7734H25.6086C24.8642 52.7734 24.2607 53.3857 24.2607 54.1406V59.6094C24.2607 60.3643 24.8642 60.9766 25.6086 60.9766H36.3912C37.1354 60.9766 37.739 60.3643 37.739 59.6094V54.1406C37.739 53.3857 37.1354 52.7734 36.3912 52.7734ZM35.0434 58.2422H26.9564V55.5078H35.0434V58.2422Z" fill="#E31129"/>
<rect width="13.4783" height="8.20312" fill="black" fill-opacity="0" transform="translate(40.4346 52.7734)"/>
<rect width="13.4783" height="8.20312" fill="black" fill-opacity="0" transform="translate(40.4346 52.7734)"/>
<path d="M52.565 52.7734H41.7824C41.0381 52.7734 40.4346 53.3857 40.4346 54.1406V59.6094C40.4346 60.3643 41.0381 60.9766 41.7824 60.9766H52.565C53.3093 60.9766 53.9128 60.3643 53.9128 59.6094V54.1406C53.9128 53.3857 53.3093 52.7734 52.565 52.7734ZM51.2172 58.2422H43.1302V55.5078H51.2172V58.2422Z" fill="#E31129"/>
</svg>
