<svg width="71" height="71" viewBox="0 0 71 71" fill="none" xmlns="http://www.w3.org/2000/svg">
<rect width="70.9997" height="71" fill="black" fill-opacity="0"/>
<rect width="59.9062" height="71" fill="black" fill-opacity="0"/>
<rect width="59.9062" height="71" fill="black" fill-opacity="0"/>
<path d="M59.5001 12.7479L47.1583 0.406168C46.8981 0.14616 46.5455 0 46.1777 0H4.16015C1.86625 0 0 1.86624 0 4.16014V66.8399C0 69.1338 1.86625 71 4.16015 71H39.1055C39.8712 71 40.4922 70.379 40.4922 69.6133C40.4922 68.8475 39.8713 68.2266 39.1055 68.2266H4.16015C3.39552 68.2266 2.77344 67.6045 2.77344 66.8399V4.16014C2.77344 3.39551 3.39552 2.77343 4.16015 2.77343H44.791V10.955C44.791 13.2489 46.6572 15.1152 48.9512 15.1152H57.1328V29.6092C57.1328 30.375 57.7538 30.996 58.5195 30.996C59.2853 30.996 59.9062 30.375 59.9062 29.6092V13.7285C59.9062 13.3607 59.7601 13.0081 59.5001 12.7479ZM48.9512 12.3417C48.1865 12.3417 47.5644 11.7197 47.5644 10.955V4.73466L55.1716 12.3417H48.9512Z" fill="#E31129"/>
<rect width="2.77344" height="2.77343" fill="black" fill-opacity="0" transform="translate(57.1328 34.0786)"/>
<rect width="2.77344" height="2.77343" fill="black" fill-opacity="0" transform="translate(57.1328 34.0786)"/>
<path d="M59.4998 34.4849C59.242 34.2269 58.8842 34.0786 58.5195 34.0786C58.1548 34.0786 57.797 34.2269 57.5391 34.4849C57.2812 34.743 57.1328 35.1006 57.1328 35.4653C57.1328 35.83 57.2811 36.1878 57.5391 36.4456C57.797 36.7035 58.1548 36.852 58.5195 36.852C58.8842 36.852 59.242 36.7037 59.4998 36.4456C59.7577 36.1878 59.9062 35.83 59.9062 35.4653C59.9062 35.1006 59.7579 34.7428 59.4998 34.4849Z" fill="#E31129"/>
<rect width="39.6414" height="36.8866" fill="black" fill-opacity="0" transform="translate(31.3584 34.113)"/>
<rect width="39.6414" height="36.8866" fill="black" fill-opacity="0" transform="translate(31.3584 34.113)"/>
<path d="M67.8137 56.8544L70.9719 41.3409C71.055 40.933 70.9505 40.5093 70.687 40.187C70.4236 39.8646 70.0294 39.6775 69.6131 39.6775H40.7476L39.71 35.1875C39.5647 34.5586 39.0045 34.113 38.359 34.113H32.7451C31.9794 34.113 31.3584 34.734 31.3584 35.4998C31.3584 36.2655 31.9794 36.8865 32.7451 36.8865H37.2561L43.1605 62.4369C43.3058 63.0658 43.866 63.5114 44.5116 63.5114H46.0523C45.0456 64.2722 44.3935 65.4788 44.3935 66.8352C44.3935 69.1316 46.2617 70.9996 48.558 70.9996C50.8543 70.9996 52.7225 69.1314 52.7225 66.8352C52.7225 65.4788 52.0704 64.2722 51.0637 63.5114H59.619C58.6123 64.2722 57.9602 65.4788 57.9602 66.8352C57.9602 69.1316 59.8284 70.9996 62.1247 70.9996C64.421 70.9996 66.2891 69.1314 66.2891 66.8352C66.2891 65.4788 65.6371 64.2722 64.6303 63.5114H66.4927C67.2585 63.5114 67.8794 62.8904 67.8794 62.1246C67.8794 61.3589 67.2585 60.7379 66.4927 60.7379H45.6144L44.9735 57.9645H66.4549C67.1141 57.9645 67.6821 57.5004 67.8137 56.8544ZM62.1248 65.4442C62.8918 65.4442 63.5158 66.0682 63.5158 66.8352C63.5158 67.6022 62.8918 68.2262 62.1248 68.2262C61.3578 68.2262 60.7338 67.6022 60.7338 66.8352C60.7338 66.0682 61.3578 65.4442 62.1248 65.4442ZM48.558 65.4442C49.325 65.4442 49.949 66.0682 49.949 66.8352C49.949 67.6022 49.325 68.2262 48.558 68.2262C47.791 68.2262 47.167 67.6022 47.167 66.8352C47.167 66.0682 47.791 65.4442 48.558 65.4442ZM44.3325 55.1911L41.3884 42.4509H67.9156L65.322 55.1911H44.3325Z" fill="#E31129"/>
<rect width="25.8034" height="2.77343" fill="black" fill-opacity="0" transform="translate(19.8301 18.3047)"/>
<rect width="25.8034" height="2.77343" fill="black" fill-opacity="0" transform="translate(19.8301 18.3047)"/>
<path d="M44.2467 18.3047H21.2168C20.4511 18.3047 19.8301 18.9257 19.8301 19.6914C19.8301 20.4571 20.4511 21.0781 21.2168 21.0781H44.2467C45.0125 21.0781 45.6334 20.4571 45.6334 19.6914C45.6334 18.9257 45.0126 18.3047 44.2467 18.3047Z" fill="#E31129"/>
<rect width="25.8034" height="2.77343" fill="black" fill-opacity="0" transform="translate(19.8301 28.2891)"/>
<rect width="25.8034" height="2.77343" fill="black" fill-opacity="0" transform="translate(19.8301 28.2891)"/>
<path d="M44.2467 28.2891H21.2168C20.4511 28.2891 19.8301 28.91 19.8301 29.6758C19.8301 30.4415 20.4511 31.0625 21.2168 31.0625H44.2467C45.0126 31.0625 45.6334 30.4415 45.6334 29.6758C45.6334 28.91 45.0125 28.2891 44.2467 28.2891Z" fill="#E31129"/>
<rect width="9.15234" height="2.77343" fill="black" fill-opacity="0" transform="translate(19.8301 38.2732)"/>
<rect width="9.15234" height="2.77343" fill="black" fill-opacity="0" transform="translate(19.8301 38.2732)"/>
<path d="M27.5957 38.2732H21.2168C20.4511 38.2732 19.8301 38.8942 19.8301 39.6599C19.8301 40.4256 20.4511 41.0466 21.2168 41.0466H27.5957C28.3614 41.0466 28.9824 40.4256 28.9824 39.6599C28.9824 38.8942 28.3616 38.2732 27.5957 38.2732Z" fill="#E31129"/>
<rect width="17.0566" height="2.77343" fill="black" fill-opacity="0" transform="translate(19.8301 48.2576)"/>
<rect width="17.0566" height="2.77343" fill="black" fill-opacity="0" transform="translate(19.8301 48.2576)"/>
<path d="M35.5 48.2576H21.2168C20.4511 48.2576 19.8301 48.8785 19.8301 49.6443C19.8301 50.41 20.4511 51.031 21.2168 51.031H35.5C36.2657 51.031 36.8867 50.41 36.8867 49.6443C36.8867 48.8785 36.2659 48.2576 35.5 48.2576Z" fill="#E31129"/>
<rect width="17.0566" height="2.77343" fill="black" fill-opacity="0" transform="translate(19.8301 58.2419)"/>
<rect width="17.0566" height="2.77343" fill="black" fill-opacity="0" transform="translate(19.8301 58.2419)"/>
<path d="M35.5 58.2419H21.2168C20.4511 58.2419 19.8301 58.8629 19.8301 59.6287C19.8301 60.3944 20.4511 61.0154 21.2168 61.0154H35.5C36.2657 61.0154 36.8867 60.3944 36.8867 59.6287C36.8867 58.8629 36.2659 58.2419 35.5 58.2419Z" fill="#E31129"/>
<rect width="9.02662" height="6.62946" fill="black" fill-opacity="0" transform="translate(7.48828 14.4487)"/>
<rect width="9.02662" height="6.62946" fill="black" fill-opacity="0" transform="translate(7.48828 14.4487)"/>
<path d="M16.1088 14.8548C15.5671 14.3134 14.6893 14.3134 14.1475 14.8548L11.272 17.7304L9.85565 16.314C9.314 15.7726 8.43593 15.7726 7.89442 16.314C7.3529 16.8556 7.3529 17.7336 7.89442 18.2752L10.2914 20.672C10.5622 20.9427 10.917 21.0782 11.2719 21.0782C11.6268 21.0782 11.9816 20.9427 12.2525 20.672L16.1086 16.8158C16.6503 16.2743 16.6503 15.3963 16.1088 14.8548Z" fill="#E31129"/>
<rect width="9.02662" height="6.62946" fill="black" fill-opacity="0" transform="translate(7.48828 24.4331)"/>
<rect width="9.02662" height="6.62946" fill="black" fill-opacity="0" transform="translate(7.48828 24.4331)"/>
<path d="M16.1088 24.8391C15.5671 24.2978 14.6893 24.2978 14.1475 24.8391L11.272 27.7148L9.85565 26.2984C9.314 25.757 8.43593 25.757 7.89442 26.2984C7.3529 26.84 7.3529 27.718 7.89442 28.2596L10.2914 30.6564C10.5622 30.9271 10.917 31.0626 11.2719 31.0626C11.6268 31.0626 11.9816 30.9271 12.2525 30.6564L16.1086 26.8002C16.6503 26.2587 16.6503 25.3806 16.1088 24.8391Z" fill="#E31129"/>
<rect width="9.02662" height="6.62946" fill="black" fill-opacity="0" transform="translate(7.48828 34.4172)"/>
<rect width="9.02662" height="6.62946" fill="black" fill-opacity="0" transform="translate(7.48828 34.4172)"/>
<path d="M16.1088 34.8233C15.5671 34.2819 14.6893 34.2819 14.1475 34.8233L11.272 37.6989L9.85565 36.2825C9.314 35.7411 8.43593 35.7411 7.89442 36.2825C7.3529 36.8242 7.3529 37.7021 7.89442 38.2437L10.2914 40.6405C10.5622 40.9112 10.917 41.0467 11.2719 41.0467C11.6268 41.0467 11.9816 40.9112 12.2525 40.6405L16.1086 36.7844C16.6503 36.2428 16.6503 35.3648 16.1088 34.8233Z" fill="#E31129"/>
<rect width="9.02662" height="6.62946" fill="black" fill-opacity="0" transform="translate(7.48828 44.4016)"/>
<rect width="9.02662" height="6.62946" fill="black" fill-opacity="0" transform="translate(7.48828 44.4016)"/>
<path d="M16.1088 44.8076C15.5671 44.2663 14.6893 44.2663 14.1475 44.8076L11.272 47.6833L9.85565 46.2669C9.314 45.7255 8.43593 45.7255 7.89442 46.2669C7.3529 46.8085 7.3529 47.6865 7.89442 48.2281L10.2914 50.6249C10.5622 50.8956 10.917 51.0311 11.2719 51.0311C11.6268 51.0311 11.9816 50.8956 12.2525 50.6249L16.1086 46.7687C16.6503 46.2272 16.6503 45.3492 16.1088 44.8076Z" fill="#E31129"/>
<rect width="9.0265" height="6.62948" fill="black" fill-opacity="0" transform="translate(7.48828 54.386)"/>
<rect width="9.0265" height="6.62948" fill="black" fill-opacity="0" transform="translate(7.48828 54.386)"/>
<path d="M16.1086 54.7919C15.567 54.2507 14.6892 54.2507 14.1475 54.792L11.272 57.6677L9.85565 56.2513C9.314 55.7099 8.43593 55.7099 7.89442 56.2513C7.3529 56.7929 7.3529 57.6708 7.89442 58.2125L10.2914 60.6093C10.5622 60.88 10.917 61.0155 11.2719 61.0155C11.6268 61.0155 11.9816 60.88 12.2525 60.6093L16.1086 56.7531C16.6502 56.2116 16.6502 55.3335 16.1086 54.7919Z" fill="#E31129"/>
<rect width="2.77344" height="2.77343" fill="black" fill-opacity="0" transform="translate(7.76562 7.48828)"/>
<rect width="2.77344" height="2.77343" fill="black" fill-opacity="0" transform="translate(7.76562 7.48828)"/>
<path d="M10.1326 7.89459C9.87482 7.63666 9.51705 7.48828 9.15234 7.48828C8.78764 7.48828 8.42986 7.63652 8.17193 7.89459C7.914 8.15266 7.76562 8.5089 7.76562 8.87499C7.76562 9.2397 7.91387 9.59747 8.17193 9.85526C8.42986 10.1133 8.78764 10.2617 9.15234 10.2617C9.51705 10.2617 9.87482 10.1133 10.1326 9.85526C10.3905 9.59747 10.5391 9.2397 10.5391 8.87499C10.5391 8.51029 10.3907 8.15252 10.1326 7.89459Z" fill="#E31129"/>
<rect width="14.3591" height="2.77343" fill="black" fill-opacity="0" transform="translate(14.2812 7.48828)"/>
<rect width="14.3591" height="2.77343" fill="black" fill-opacity="0" transform="translate(14.2812 7.48828)"/>
<path d="M27.2536 7.48828H15.668C14.9022 7.48828 14.2812 8.10925 14.2812 8.87499C14.2812 9.64074 14.9022 10.2617 15.668 10.2617H27.2536C28.0195 10.2617 28.6403 9.64074 28.6403 8.87499C28.6403 8.10925 28.0193 7.48828 27.2536 7.48828Z" fill="#E31129"/>
</svg>
