<svg width="360" height="241" viewBox="0 0 360 241" fill="none" xmlns="http://www.w3.org/2000/svg">
    <path d="M-20.4106 203.58C-22.1315 205.311 -22.8979 207.252 -22.6431 209.233C-22.5649 209.846 -22.239 210.376 -14.5903 222.159C-6.94159 233.942 -6.5907 234.456 -6.06221 234.777C-5.20362 235.305 -4.59174 235.509 -3.59053 235.6C-2.42426 235.699 -1.19958 235.504 0.0718294 234.998C1.03893 234.626 1.53918 234.301 27.752 217.286C53.9649 200.271 54.4652 199.946 55.1989 199.215C56.9757 197.461 57.7663 195.53 57.494 193.522C57.4157 192.908 57.0898 192.379 49.4412 180.596C41.7925 168.812 41.4416 168.299 40.9131 167.978C40.0545 167.449 39.4426 167.246 38.4414 167.155C37.2751 167.056 36.0505 167.25 34.779 167.756C33.8119 168.129 33.3242 168.445 7.04213 185.518C-18.7772 202.29 -19.7402 202.915 -20.4106 203.58ZM34.6852 170.871C34.6393 170.964 31.412 178.041 27.4816 186.61C22.1411 198.291 20.2289 202.355 19.827 202.859C19.3934 203.396 19.1791 203.586 18.5872 203.906C18.1945 204.123 17.5934 204.347 17.2549 204.401C16.713 204.497 -17.6297 204.88 -17.688 204.79C-17.6938 204.781 -5.89971 197.1 8.51987 187.74C24.3151 177.487 34.7186 170.785 34.6852 170.871ZM-7.76208 207.813C-2.2866 207.759 2.20683 207.781 2.22265 207.86C2.23848 207.939 0.90713 213.364 -0.748689 219.932L-3.75252 231.872L-11.4212 220.14C-15.6286 213.686 -19.1166 208.285 -19.1491 208.153C-19.2082 207.897 -19.2082 207.897 -18.4613 207.898C-18.0511 207.9 -13.2376 207.867 -7.76208 207.813ZM46.147 182.695L53.729 194.458L41.5046 192.467C34.7863 191.373 29.2626 190.449 29.2334 190.404C29.2042 190.359 31.2024 185.906 33.6592 180.518C37.5645 171.965 38.1616 170.722 38.3541 170.827C38.4683 170.893 41.9706 176.234 46.147 182.695ZM13.753 207.632C16.9376 207.609 18.0106 207.372 19.8765 206.276C22.3794 204.792 22.8863 204.067 25.5858 198.175C26.745 195.634 27.7607 193.557 27.8215 193.569C27.9007 193.581 33.517 194.484 40.327 195.582L52.6857 197.588L39.4467 206.22C32.1614 210.962 20.2055 218.723 12.8836 223.463L-0.440424 232.073L2.31649 221.149C3.8255 215.149 5.20771 209.666 5.38956 208.96L5.71154 207.703L8.74941 207.673C10.4276 207.657 12.6751 207.642 13.753 207.632Z" fill="white" fill-opacity="0.1" />
    <path d="M49.3087 123.983C47.5877 125.713 46.8213 127.654 47.0761 129.635C47.1544 130.248 47.4803 130.778 55.129 142.561C62.7776 154.344 63.1285 154.858 63.657 155.179C64.5156 155.707 65.1275 155.911 66.1287 156.002C67.295 156.101 68.5197 155.906 69.7911 155.4C70.7582 155.028 71.2584 154.703 97.4713 137.688C123.684 120.673 124.184 120.349 124.918 119.617C126.695 117.863 127.486 115.932 127.213 113.924C127.135 113.31 126.809 112.781 119.16 100.998C111.512 89.2143 111.161 88.7011 110.632 88.3799C109.774 87.8513 109.162 87.648 108.161 87.557C106.994 87.4581 105.77 87.6526 104.498 88.1585C103.531 88.5307 103.043 88.8473 76.7614 105.92C50.942 122.692 49.979 123.317 49.3087 123.983ZM104.404 91.2727C104.359 91.3663 101.131 98.4435 97.2009 107.012C91.8603 118.693 89.9481 122.757 89.5462 123.261C89.1126 123.798 88.8984 123.988 88.3064 124.308C87.9137 124.525 87.3126 124.749 86.9741 124.803C86.4323 124.899 52.0896 125.282 52.0312 125.192C52.0254 125.183 63.8195 117.502 78.2391 108.142C94.0344 97.889 104.438 91.1871 104.404 91.2727ZM61.9572 128.215C67.4326 128.162 71.9261 128.183 71.9419 128.262C71.9577 128.341 70.6264 133.766 68.9705 140.334L65.9667 152.274L58.298 140.542C54.0907 134.088 50.6026 128.687 50.5701 128.555C50.511 128.299 50.511 128.299 51.258 128.3C51.6681 128.302 56.4817 128.269 61.9572 128.215ZM115.866 103.098L123.448 114.86L111.224 112.869C104.506 111.775 98.9818 110.851 98.9526 110.806C98.9235 110.761 100.922 106.309 103.378 100.92C107.284 92.3675 107.881 91.124 108.073 91.229C108.188 91.2954 111.69 96.636 115.866 103.098ZM83.4723 128.034C86.6569 128.011 87.7298 127.774 89.5957 126.678C92.0986 125.194 92.6056 124.469 95.305 118.578C96.4642 116.037 97.4799 113.959 97.5408 113.971C97.62 113.983 103.236 114.886 110.046 115.984L122.405 117.99L109.166 126.622C101.881 131.364 89.9248 139.125 82.6029 143.865L69.2788 152.475L72.0357 141.551C73.5447 135.551 74.927 130.068 75.1088 129.362L75.4308 128.105L78.4686 128.075C80.1468 128.059 82.3944 128.044 83.4723 128.034Z" fill="white" fill-opacity="0.1" />
    <path d="M119.251 44.8297C117.53 46.56 116.763 48.5011 117.018 50.4819C117.096 51.0954 117.422 51.6249 125.071 63.4082C132.72 75.1916 133.07 75.7048 133.599 76.0261C134.458 76.5546 135.069 76.7579 136.071 76.8489C137.237 76.9478 138.462 76.7533 139.733 76.2474C140.7 75.8752 141.2 75.5505 167.413 58.5354C193.626 41.5204 194.126 41.1957 194.86 40.4639C196.637 38.7102 197.427 36.7789 197.155 34.7711C197.077 34.1576 196.751 33.6282 189.102 21.8448C181.454 10.0615 181.103 9.54828 180.574 9.22702C179.716 8.69845 179.104 8.49519 178.103 8.40413C176.936 8.30524 175.712 8.49975 174.44 9.00566C173.473 9.37791 172.985 9.69451 146.703 26.7672C120.884 43.5396 119.921 44.1646 119.251 44.8297ZM174.346 12.1198C174.3 12.2135 171.073 19.2907 167.143 27.859C161.802 39.54 159.89 43.6046 159.488 44.1082C159.055 44.6451 158.84 44.8353 158.248 45.1557C157.856 45.3722 157.255 45.5963 156.916 45.65C156.374 45.7462 122.031 46.129 121.973 46.0391C121.967 46.0301 133.761 38.3489 148.181 28.989C163.976 18.7362 174.38 12.0343 174.346 12.1198ZM131.899 49.0625C137.375 49.0087 141.868 49.0302 141.884 49.1094C141.9 49.1885 140.568 54.6135 138.912 61.1816L135.909 73.1216L128.24 61.3895C124.033 54.9352 120.545 49.5342 120.512 49.402C120.453 49.1466 120.453 49.1466 121.2 49.1472C121.61 49.1492 126.424 49.1163 131.899 49.0625ZM185.808 23.9448L193.39 35.7075L181.166 33.7163C174.447 32.6222 168.924 31.6981 168.895 31.6531C168.865 31.6082 170.863 27.1557 173.32 21.7668C177.226 13.2147 177.823 11.9712 178.015 12.0761C178.129 12.1425 181.632 17.4832 185.808 23.9448ZM153.414 48.8812C156.599 48.8581 157.672 48.6215 159.538 47.5253C162.04 46.0412 162.547 45.3161 165.247 39.4247C166.406 36.8838 167.422 34.8064 167.483 34.818C167.562 34.8305 173.178 35.7329 179.988 36.8313L192.347 38.8376L179.108 47.4695C171.823 52.2112 159.867 59.9719 152.545 64.7118L139.221 73.3223L141.978 62.3985C143.487 56.3984 144.869 50.9149 145.051 50.2092L145.373 48.9526L148.411 48.9225C150.089 48.9063 152.336 48.891 153.414 48.8812Z" fill="white" fill-opacity="0.1" />
    <path d="M213.875 203.58C212.154 205.311 211.387 207.252 211.642 209.233C211.72 209.846 212.046 210.376 219.695 222.159C227.344 233.942 227.694 234.456 228.223 234.777C229.082 235.305 229.693 235.509 230.695 235.6C231.861 235.699 233.086 235.504 234.357 234.998C235.324 234.626 235.824 234.301 262.037 217.286C288.25 200.271 288.75 199.946 289.484 199.215C291.261 197.461 292.051 195.53 291.779 193.522C291.701 192.908 291.375 192.379 283.726 180.596C276.078 168.812 275.727 168.299 275.198 167.978C274.34 167.449 273.728 167.246 272.727 167.155C271.56 167.056 270.336 167.25 269.064 167.756C268.097 168.129 267.609 168.445 241.327 185.518C215.508 202.29 214.545 202.915 213.875 203.58ZM268.97 170.871C268.924 170.964 265.697 178.041 261.767 186.61C256.426 198.291 254.514 202.355 254.112 202.859C253.679 203.396 253.464 203.586 252.872 203.906C252.48 204.123 251.879 204.347 251.54 204.401C250.998 204.497 216.655 204.88 216.597 204.79C216.591 204.781 228.385 197.1 242.805 187.74C258.6 177.487 269.004 170.785 268.97 170.871ZM226.523 207.813C231.999 207.759 236.492 207.781 236.508 207.86C236.524 207.939 235.192 213.364 233.536 219.932L230.533 231.872L222.864 220.14C218.657 213.686 215.169 208.285 215.136 208.153C215.077 207.897 215.077 207.897 215.824 207.898C216.234 207.9 221.048 207.867 226.523 207.813ZM280.432 182.695L288.014 194.458L275.79 192.467C269.071 191.373 263.548 190.449 263.519 190.404C263.489 190.359 265.488 185.906 267.944 180.518C271.85 171.965 272.447 170.722 272.639 170.827C272.753 170.893 276.256 176.234 280.432 182.695ZM248.038 207.632C251.223 207.609 252.296 207.372 254.162 206.276C256.665 204.792 257.171 204.067 259.871 198.175C261.03 195.634 262.046 193.557 262.107 193.569C262.186 193.581 267.802 194.484 274.612 195.582L286.971 197.588L273.732 206.22C266.447 210.962 254.491 218.723 247.169 223.463L233.845 232.073L236.602 221.149C238.111 215.149 239.493 209.666 239.675 208.96L239.997 207.703L243.035 207.673C244.713 207.657 246.96 207.642 248.038 207.632Z" fill="white" fill-opacity="0.1" />
    <path d="M283.594 123.983C281.873 125.713 281.106 127.654 281.361 129.635C281.44 130.248 281.765 130.778 289.414 142.561C297.063 154.344 297.414 154.858 297.942 155.179C298.801 155.707 299.413 155.911 300.414 156.002C301.58 156.101 302.805 155.906 304.076 155.4C305.043 155.028 305.544 154.703 331.756 137.688C357.969 120.673 358.47 120.349 359.203 119.617C360.98 117.863 361.771 115.932 361.498 113.924C361.42 113.31 361.094 112.781 353.446 100.998C345.797 89.2143 345.446 88.7011 344.917 88.3799C344.059 87.8513 343.447 87.648 342.446 87.557C341.28 87.4581 340.055 87.6526 338.783 88.1585C337.816 88.5307 337.329 88.8473 311.047 105.92C285.227 122.692 284.264 123.317 283.594 123.983ZM338.69 91.2727C338.644 91.3663 335.416 98.4435 331.486 107.012C326.145 118.693 324.233 122.757 323.831 123.261C323.398 123.798 323.184 123.988 322.592 124.308C322.199 124.525 321.598 124.749 321.259 124.803C320.717 124.899 286.375 125.282 286.316 125.192C286.311 125.183 298.105 117.502 312.524 108.142C328.32 97.889 338.723 91.1871 338.69 91.2727ZM296.242 128.215C301.718 128.162 306.211 128.183 306.227 128.262C306.243 128.341 304.912 133.766 303.256 140.334L300.252 152.274L292.583 140.542C288.376 134.088 284.888 128.687 284.855 128.555C284.796 128.299 284.796 128.299 285.543 128.3C285.953 128.302 290.767 128.269 296.242 128.215ZM350.151 103.098L357.733 114.86L345.509 112.869C338.791 111.775 333.267 110.851 333.238 110.806C333.209 110.761 335.207 106.309 337.664 100.92C341.569 92.3675 342.166 91.124 342.359 91.229C342.473 91.2954 345.975 96.636 350.151 103.098ZM317.757 128.034C320.942 128.011 322.015 127.774 323.881 126.678C326.384 125.194 326.891 124.469 329.59 118.578C330.749 116.037 331.765 113.959 331.826 113.971C331.905 113.983 337.521 114.886 344.331 115.984L356.69 117.99L343.451 126.622C336.166 131.364 324.21 139.125 316.888 143.865L303.564 152.475L306.321 141.551C307.83 135.551 309.212 130.068 309.394 129.362L309.716 128.105L312.754 128.075C314.432 128.059 316.68 128.044 317.757 128.034Z" fill="white" fill-opacity="0.1" />
    <path d="M353.536 44.8297C351.815 46.56 351.048 48.5011 351.303 50.4819C351.381 51.0954 351.707 51.6249 359.356 63.4082C367.005 75.1916 367.356 75.7048 367.884 76.0261C368.743 76.5546 369.355 76.7579 370.356 76.8489C371.522 76.9478 372.747 76.7533 374.018 76.2474C374.985 75.8752 375.485 75.5505 401.698 58.5354C427.911 41.5204 428.411 41.1957 429.145 40.4639C430.922 38.7102 431.713 36.7789 431.44 34.7711C431.362 34.1576 431.036 33.6282 423.387 21.8448C415.739 10.0615 415.388 9.54828 414.859 9.22702C414.001 8.69845 413.389 8.49519 412.388 8.40413C411.221 8.30524 409.997 8.49975 408.725 9.00566C407.758 9.37791 407.27 9.69451 380.988 26.7672C355.169 43.5396 354.206 44.1646 353.536 44.8297ZM408.631 12.1198C408.586 12.2135 405.358 19.2907 401.428 27.859C396.087 39.54 394.175 43.6046 393.773 44.1082C393.34 44.6451 393.125 44.8353 392.533 45.1557C392.141 45.3722 391.54 45.5963 391.201 45.65C390.659 45.7462 356.317 46.129 356.258 46.0391C356.252 46.0301 368.047 38.3489 382.466 28.989C398.261 18.7362 408.665 12.0343 408.631 12.1198ZM366.184 49.0625C371.66 49.0087 376.153 49.0302 376.169 49.1094C376.185 49.1885 374.853 54.6135 373.198 61.1816L370.194 73.1216L362.525 61.3895C358.318 54.9352 354.83 49.5342 354.797 49.402C354.738 49.1466 354.738 49.1466 355.485 49.1472C355.895 49.1492 360.709 49.1163 366.184 49.0625ZM420.093 23.9448L427.675 35.7075L415.451 33.7163C408.733 32.6222 403.209 31.6981 403.18 31.6531C403.151 31.6082 405.149 27.1557 407.605 21.7668C411.511 13.2147 412.108 11.9712 412.3 12.0761C412.415 12.1425 415.917 17.4832 420.093 23.9448ZM387.699 48.8812C390.884 48.8581 391.957 48.6215 393.823 47.5253C396.326 46.0412 396.833 45.3161 399.532 39.4247C400.691 36.8838 401.707 34.8064 401.768 34.818C401.847 34.8305 407.463 35.7329 414.273 36.8313L426.632 38.8376L413.393 47.4695C406.108 52.2112 394.152 59.9719 386.83 64.7118L373.506 73.3223L376.263 62.3985C377.772 56.3984 379.154 50.9149 379.336 50.2092L379.658 48.9526L382.696 48.9225C384.374 48.9063 386.621 48.891 387.699 48.8812Z" fill="white" fill-opacity="0.1" />
    <path d="M97.2789 203.58C95.558 205.311 94.7915 207.252 95.0463 209.233C95.1246 209.846 95.4505 210.376 103.099 222.159C110.748 233.942 111.099 234.456 111.627 234.777C112.486 235.305 113.098 235.509 114.099 235.6C115.265 235.699 116.49 235.504 117.761 234.998C118.728 234.626 119.229 234.301 145.442 217.286C171.654 200.271 172.155 199.946 172.888 199.215C174.665 197.461 175.456 195.53 175.183 193.522C175.105 192.908 174.779 192.379 167.131 180.596C159.482 168.812 159.131 168.299 158.603 167.978C157.744 167.449 157.132 167.246 156.131 167.155C154.965 167.056 153.74 167.25 152.468 167.756C151.501 168.129 151.014 168.445 124.732 185.518C98.9122 202.29 97.9493 202.915 97.2789 203.58ZM152.375 170.871C152.329 170.964 149.101 178.041 145.171 186.61C139.831 198.291 137.918 202.355 137.516 202.859C137.083 203.396 136.869 203.586 136.277 203.906C135.884 204.123 135.283 204.347 134.944 204.401C134.402 204.497 100.06 204.88 100.001 204.79C99.9956 204.781 111.79 197.1 126.209 187.74C142.005 177.487 152.408 170.785 152.375 170.871ZM109.927 207.813C115.403 207.759 119.896 207.781 119.912 207.86C119.928 207.939 118.597 213.364 116.941 219.932L113.937 231.872L106.268 220.14C102.061 213.686 98.5728 208.285 98.5404 208.153C98.4812 207.897 98.4812 207.897 99.2282 207.898C99.6383 207.9 104.452 207.867 109.927 207.813ZM163.836 182.695L171.419 194.458L159.194 192.467C152.476 191.373 146.952 190.449 146.923 190.404C146.894 190.359 148.892 185.906 151.349 180.518C155.254 171.965 155.851 170.722 156.044 170.827C156.158 170.893 159.66 176.234 163.836 182.695ZM131.442 207.632C134.627 207.609 135.7 207.372 137.566 206.276C140.069 204.792 140.576 204.067 143.275 198.175C144.434 195.634 145.45 193.557 145.511 193.569C145.59 193.581 151.206 194.484 158.016 195.582L170.375 197.588L157.136 206.22C149.851 210.962 137.895 218.723 130.573 223.463L117.249 232.073L120.006 221.149C121.515 215.149 122.897 209.666 123.079 208.96L123.401 207.703L126.439 207.673C128.117 207.657 130.365 207.642 131.442 207.632Z" fill="white" fill-opacity="0.1" />
    <path d="M166.998 123.983C165.277 125.713 164.511 127.654 164.766 129.635C164.844 130.248 165.17 130.778 172.818 142.561C180.467 154.344 180.818 154.858 181.346 155.179C182.205 155.707 182.817 155.911 183.818 156.002C184.984 156.101 186.209 155.906 187.481 155.4C188.448 155.028 188.948 154.703 215.161 137.688C241.374 120.673 241.874 120.349 242.608 119.617C244.384 117.863 245.175 115.932 244.903 113.924C244.824 113.31 244.499 112.781 236.85 100.998C229.201 89.2143 228.85 88.7011 228.322 88.3799C227.463 87.8513 226.851 87.648 225.85 87.557C224.684 87.4581 223.459 87.6526 222.188 88.1585C221.221 88.5307 220.733 88.8473 194.451 105.92C168.631 122.692 167.668 123.317 166.998 123.983ZM222.094 91.2727C222.048 91.3663 218.821 98.4435 214.89 107.012C209.55 118.693 207.638 122.757 207.236 123.261C206.802 123.798 206.588 123.988 205.996 124.308C205.603 124.525 205.002 124.749 204.664 124.803C204.122 124.899 169.779 125.282 169.721 125.192C169.715 125.183 181.509 117.502 195.929 108.142C211.724 97.889 222.127 91.1871 222.094 91.2727ZM179.647 128.215C185.122 128.162 189.616 128.183 189.631 128.262C189.647 128.341 188.316 133.766 186.66 140.334L183.656 152.274L175.987 140.542C171.78 134.088 168.292 128.687 168.26 128.555C168.2 128.299 168.2 128.299 168.947 128.3C169.358 128.302 174.171 128.269 179.647 128.215ZM233.556 103.098L241.138 114.86L228.913 112.869C222.195 111.775 216.671 110.851 216.642 110.806C216.613 110.761 218.611 106.309 221.068 100.92C224.973 92.3675 225.57 91.124 225.763 91.229C225.877 91.2954 229.379 96.636 233.556 103.098ZM201.162 128.034C204.346 128.011 205.419 127.774 207.285 126.678C209.788 125.194 210.295 124.469 212.994 118.578C214.154 116.037 215.169 113.959 215.23 113.971C215.309 113.983 220.926 114.886 227.736 115.984L240.094 117.99L226.855 126.622C219.57 131.364 207.614 139.125 200.292 143.865L186.968 152.475L189.725 141.551C191.234 135.551 192.616 130.068 192.798 129.362L193.12 128.105L196.158 128.075C197.836 128.059 200.084 128.044 201.162 128.034Z" fill="white" fill-opacity="0.1" />
    <path d="M236.94 44.8297C235.219 46.56 234.453 48.5011 234.707 50.4819C234.786 51.0954 235.112 51.6249 242.76 63.4082C250.409 75.1916 250.76 75.7048 251.288 76.0261C252.147 76.5546 252.759 76.7579 253.76 76.8489C254.926 76.9478 256.151 76.7533 257.422 76.2474C258.39 75.8752 258.89 75.5505 285.103 58.5354C311.316 41.5204 311.816 41.1957 312.549 40.4639C314.326 38.7102 315.117 36.7789 314.845 34.7711C314.766 34.1576 314.44 33.6282 306.792 21.8448C299.143 10.0615 298.792 9.54828 298.264 9.22702C297.405 8.69845 296.793 8.49519 295.792 8.40413C294.626 8.30524 293.401 8.49975 292.13 9.00566C291.163 9.37791 290.675 9.69451 264.393 26.7672C238.573 43.5396 237.61 44.1646 236.94 44.8297ZM292.036 12.1198C291.99 12.2135 288.763 19.2907 284.832 27.859C279.492 39.54 277.579 43.6046 277.178 44.1082C276.744 44.6451 276.53 44.8353 275.938 45.1557C275.545 45.3722 274.944 45.5963 274.605 45.65C274.064 45.7462 239.721 46.129 239.663 46.0391C239.657 46.0301 251.451 38.3489 265.87 28.989C281.666 18.7362 292.069 12.0343 292.036 12.1198ZM249.589 49.0625C255.064 49.0087 259.557 49.0302 259.573 49.1094C259.589 49.1885 258.258 54.6135 256.602 61.1816L253.598 73.1216L245.929 61.3895C241.722 54.9352 238.234 49.5342 238.201 49.402C238.142 49.1466 238.142 49.1466 238.889 49.1472C239.299 49.1492 244.113 49.1163 249.589 49.0625ZM303.498 23.9448L311.08 35.7075L298.855 33.7163C292.137 32.6222 286.613 31.6981 286.584 31.6531C286.555 31.6082 288.553 27.1557 291.01 21.7668C294.915 13.2147 295.512 11.9712 295.705 12.0761C295.819 12.1425 299.321 17.4832 303.498 23.9448ZM271.104 48.8812C274.288 48.8581 275.361 48.6215 277.227 47.5253C279.73 46.0412 280.237 45.3161 282.936 39.4247C284.096 36.8838 285.111 34.8064 285.172 34.818C285.251 34.8305 290.868 35.7329 297.678 36.8313L310.036 38.8376L296.797 47.4695C289.512 52.2112 277.556 59.9719 270.234 64.7118L256.91 73.3223L259.667 62.3985C261.176 56.3984 262.558 50.9149 262.74 50.2092L263.062 48.9526L266.1 48.9225C267.778 48.9063 270.026 48.891 271.104 48.8812Z" fill="white" fill-opacity="0.1" />
    <path d="M331.564 203.58C329.843 205.311 329.077 207.252 329.331 209.233C329.41 209.846 329.736 210.376 337.384 222.159C345.033 233.942 345.384 234.456 345.912 234.777C346.771 235.305 347.383 235.509 348.384 235.6C349.55 235.699 350.775 235.504 352.046 234.998C353.014 234.626 353.514 234.301 379.727 217.286C405.94 200.271 406.44 199.946 407.174 199.215C408.95 197.461 409.741 195.53 409.469 193.522C409.39 192.908 409.064 192.379 401.416 180.596C393.767 168.812 393.416 168.299 392.888 167.978C392.029 167.449 391.417 167.246 390.416 167.155C389.25 167.056 388.025 167.25 386.754 167.756C385.787 168.129 385.299 168.445 359.017 185.518C333.197 202.29 332.234 202.915 331.564 203.58ZM386.66 170.871C386.614 170.964 383.387 178.041 379.456 186.61C374.116 198.291 372.203 202.355 371.802 202.859C371.368 203.396 371.154 203.586 370.562 203.906C370.169 204.123 369.568 204.347 369.23 204.401C368.688 204.497 334.345 204.88 334.287 204.79C334.281 204.781 346.075 197.1 360.494 187.74C376.29 177.487 386.693 170.785 386.66 170.871ZM344.213 207.813C349.688 207.759 354.181 207.781 354.197 207.86C354.213 207.939 352.882 213.364 351.226 219.932L348.222 231.872L340.553 220.14C336.346 213.686 332.858 208.285 332.826 208.153C332.766 207.897 332.766 207.897 333.513 207.898C333.923 207.9 338.737 207.867 344.213 207.813ZM398.122 182.695L405.704 194.458L393.479 192.467C386.761 191.373 381.237 190.449 381.208 190.404C381.179 190.359 383.177 185.906 385.634 180.518C389.539 171.965 390.136 170.722 390.329 170.827C390.443 170.893 393.945 176.234 398.122 182.695ZM365.728 207.632C368.912 207.609 369.985 207.372 371.851 206.276C374.354 204.792 374.861 204.067 377.56 198.175C378.72 195.634 379.735 193.557 379.796 193.569C379.875 193.581 385.492 194.484 392.302 195.582L404.66 197.588L391.421 206.22C384.136 210.962 372.18 218.723 364.858 223.463L351.534 232.073L354.291 221.149C355.8 215.149 357.182 209.666 357.364 208.96L357.686 207.703L360.724 207.673C362.402 207.657 364.65 207.642 365.728 207.632Z" fill="white" fill-opacity="0.1" />
    <path d="M-73.4853 120.886C-75.2062 122.616 -75.9726 124.557 -75.7178 126.538C-75.6396 127.152 -75.3137 127.681 -67.665 139.464C-60.0163 151.248 -59.6654 151.761 -59.1369 152.082C-58.2783 152.611 -57.6664 152.814 -56.6652 152.905C-55.499 153.004 -54.2743 152.809 -53.0029 152.304C-52.0358 151.931 -51.5355 151.607 -25.3227 134.592C0.890213 117.577 1.39046 117.252 2.12419 116.52C3.90099 114.766 4.69159 112.835 4.41929 110.827C4.34102 110.214 4.01514 109.684 -3.63355 97.901C-11.2822 86.1176 -11.6331 85.6044 -12.1616 85.2832C-13.0202 84.7546 -13.6321 84.5513 -14.6333 84.4603C-15.7996 84.3614 -17.0243 84.5559 -18.2957 85.0618C-19.2628 85.4341 -19.7505 85.7507 -46.0326 102.823C-71.8519 119.596 -72.8149 120.221 -73.4853 120.886ZM-18.3895 88.176C-18.4354 88.2696 -21.6627 95.3468 -25.5931 103.915C-30.9336 115.596 -32.8458 119.661 -33.2477 120.164C-33.6813 120.701 -33.8956 120.891 -34.4875 121.212C-34.8802 121.428 -35.4813 121.652 -35.8198 121.706C-36.3617 121.802 -70.7044 122.185 -70.7627 122.095C-70.7686 122.086 -58.9744 114.405 -44.5548 105.045C-28.7596 94.7923 -18.3562 88.0905 -18.3895 88.176ZM-60.8368 125.119C-55.3613 125.065 -50.8679 125.086 -50.8521 125.166C-50.8362 125.245 -52.1676 130.67 -53.8234 137.238L-56.8272 149.178L-64.4959 137.446C-68.7033 130.991 -72.1913 125.59 -72.2238 125.458C-72.283 125.203 -72.283 125.203 -71.536 125.203C-71.1258 125.205 -66.3123 125.172 -60.8368 125.119ZM-6.92766 100.001L0.654342 111.764L-11.5701 109.772C-18.2884 108.678 -23.8121 107.754 -23.8413 107.709C-23.8705 107.664 -21.8723 103.212 -19.4156 97.8229C-15.5102 89.2708 -14.9131 88.0273 -14.7206 88.1323C-14.6064 88.1987 -11.1041 93.5393 -6.92766 100.001ZM-39.3217 124.937C-36.1371 124.914 -35.0641 124.678 -33.1982 123.581C-30.6954 122.097 -30.1884 121.372 -27.4889 115.481C-26.3297 112.94 -25.314 110.863 -25.2532 110.874C-25.174 110.887 -19.5577 111.789 -12.7477 112.887L-0.389044 114.894L-13.6281 123.526C-20.9133 128.267 -32.8692 136.028 -40.1911 140.768L-53.5151 149.378L-50.7582 138.455C-49.2492 132.455 -47.867 126.971 -47.6851 126.265L-47.3632 125.009L-44.3253 124.979C-42.6471 124.962 -40.3996 124.947 -39.3217 124.937Z" fill="white" fill-opacity="0.1" />
    <path d="M-3.54337 41.7331C-5.26431 43.4633 -6.03074 45.4044 -5.77594 47.3853C-5.69767 47.9988 -5.37179 48.5282 2.2769 60.3116C9.9256 72.0949 10.2765 72.6081 10.805 72.9294C11.6636 73.4579 12.2754 73.6612 13.2767 73.7523C14.4429 73.8512 15.6676 73.6566 16.939 73.1507C17.9061 72.7785 18.4064 72.4538 44.6192 55.4388C70.8321 38.4237 71.3323 38.099 72.0661 37.3673C73.8429 35.6135 74.6335 33.6823 74.3612 31.6745C74.2829 31.061 73.957 30.5315 66.3083 18.7482C58.6596 6.96479 58.3088 6.4516 57.7803 6.13034C56.9217 5.60177 56.3098 5.39851 55.3086 5.30745C54.1423 5.20856 52.9176 5.40307 51.6462 5.90898C50.6791 6.28123 50.1914 6.59783 23.9093 23.6705C-1.91003 40.4429 -2.87301 41.068 -3.54337 41.7331ZM51.5524 9.02315C51.5065 9.1168 48.2792 16.194 44.3488 24.7623C39.0083 36.4433 37.0961 40.5079 36.6942 41.0115C36.2606 41.5484 36.0463 41.7386 35.4544 42.059C35.0617 42.2756 34.4606 42.4997 34.1221 42.5533C33.5802 42.6495 -0.76248 43.0323 -0.820822 42.9424C-0.826656 42.9334 10.9675 35.2522 25.3871 25.8923C41.1823 15.6395 51.5857 8.93763 51.5524 9.02315ZM9.1051 45.9658C14.5806 45.912 19.074 45.9336 19.0898 46.0127C19.1057 46.0919 17.7743 51.5168 16.1185 58.0849L13.1147 70.0249L5.44595 58.2928C1.23862 51.8385 -2.24942 46.4375 -2.28191 46.3053C-2.34106 46.0499 -2.34106 46.0499 -1.5941 46.0505C-1.18394 46.0525 3.62962 46.0196 9.1051 45.9658ZM63.0142 20.8481L70.5962 32.6109L58.3718 30.6196C51.6535 29.5255 46.1298 28.6014 46.1006 28.5564C46.0714 28.5115 48.0696 24.059 50.5263 18.6701C54.4317 10.118 55.0288 8.8745 55.2213 8.97946C55.3355 9.04586 58.8377 14.3865 63.0142 20.8481ZM30.6202 45.7845C33.8048 45.7614 34.8778 45.5248 36.7437 44.4286C39.2465 42.9445 39.7535 42.2194 42.453 36.328C43.6122 33.7871 44.6279 31.7097 44.6887 31.7213C44.7679 31.7338 50.3841 32.6362 57.1941 33.7346L69.5529 35.741L56.3138 44.3728C49.0286 49.1145 37.0727 56.8752 29.7508 61.6152L16.4268 70.2256L19.1837 59.3018C20.6927 53.3017 22.0749 47.8182 22.2567 47.1125L22.5787 45.8559L25.6166 45.8259C27.2948 45.8097 29.5423 45.7943 30.6202 45.7845Z" fill="white" fill-opacity="0.1" />
</svg>