<svg width="14" height="13" viewBox="0 0 14 13" fill="none" xmlns="http://www.w3.org/2000/svg">
<rect width="13.6047" height="13" fill="black" fill-opacity="0"/>
<rect width="13.6047" height="13" fill="black" fill-opacity="0"/>
<path d="M13.6047 6.23628C13.6047 9.97108 10.5594 13 6.80236 13C3.04579 13 0 9.97108 0 6.23628C0 6.08383 0.00631041 5.93355 0.0159052 5.78455L4.13428 8.14049L12.8578 3.15025C13.3351 4.07551 13.6047 5.12419 13.6047 6.23628ZM4.13428 6.43813L0.299984 4.24521C0.224776 4.4883 0.163369 4.73657 0.115949 4.99108L4.13428 7.2894L12.4833 2.51404C12.3454 2.30757 12.1973 2.108 12.0383 1.91701L4.13428 6.43813ZM11.5204 1.36326C11.3312 1.18223 11.1316 1.0119 10.9231 0.853732L4.13428 4.73657L0.893569 2.88264C0.771272 3.09572 0.660084 3.3161 0.560851 3.54389L4.13428 5.58678L11.5204 1.36326ZM4.13428 3.88578L10.2364 0.396167C9.98122 0.247682 9.7163 0.115162 9.44141 0L4.13428 3.03509L1.77116 1.68339C1.60255 1.86725 1.44464 2.06168 1.29699 2.26279L4.13428 3.88578Z" fill="#299D30"/>
</svg>
