<svg width="29" height="8" viewBox="0 0 29 8" fill="none" xmlns="http://www.w3.org/2000/svg">
<rect width="29" height="8" fill="black" fill-opacity="0"/>
<rect width="29" height="8" fill="black" fill-opacity="0"/>
<path fill-rule="evenodd" clip-rule="evenodd" d="M10.2441 7.90867L11.7108 0.158325H14.0568L12.5891 7.90867H10.2441Z" fill="#0E4595"/>
<path fill-rule="evenodd" clip-rule="evenodd" d="M21.0643 0.325513C20.5995 0.168497 19.8712 0 18.9618 0C16.6437 0 15.0108 1.05113 14.9969 2.55766C14.9838 3.67134 16.1626 4.29251 17.0525 4.66328C17.9656 5.04311 18.2726 5.2854 18.2683 5.62465C18.2625 6.14408 17.539 6.38146 16.8648 6.38146C15.9258 6.38146 15.4269 6.26404 14.6565 5.97463L14.3542 5.85151L14.0249 7.58648C14.5729 7.80284 15.5861 7.9903 16.6381 8C19.1042 8 20.705 6.96083 20.7232 5.35207C20.7321 4.47047 20.1071 3.79949 18.7537 3.24634C17.9337 2.88785 17.4314 2.64852 17.4368 2.28556C17.4368 1.96341 17.8618 1.61885 18.7802 1.61885C19.5474 1.60816 20.1032 1.75884 20.5361 1.91578L20.7462 2.00526L21.0643 0.325433" fill="#0E4595"/>
<path fill-rule="evenodd" clip-rule="evenodd" d="M27.1014 0.158282H25.2887C24.7271 0.158282 24.3069 0.296334 24.0602 0.800994L20.5762 7.90364H23.0396C23.0396 7.90364 23.4424 6.9486 23.5335 6.73897C23.8027 6.73897 26.1958 6.74229 26.538 6.74229C26.6081 7.01357 26.8233 7.9036 26.8233 7.9036H29.0002L27.1014 0.158203L27.1014 0.158282ZM24.2253 5.16279C24.4193 4.71621 25.16 2.99628 25.16 2.99628C25.1461 3.01687 25.3526 2.54753 25.471 2.25654L25.6296 2.92482C25.6296 2.92482 26.0788 4.77477 26.1727 5.16275H24.2253V5.16279Z" fill="#0E4595"/>
<path fill-rule="evenodd" clip-rule="evenodd" d="M8.25241 0.158325L5.95565 5.44349L5.71089 4.36948C5.28332 3.13133 3.95116 1.78993 2.46191 1.11831L4.56198 7.89635L7.04411 7.89378L10.7374 0.158404H8.25246" fill="#0E4595"/>
<path fill-rule="evenodd" clip-rule="evenodd" d="M3.81284 0.158325H0.0300287L0 0.319577C2.94306 0.9611 4.89039 2.51142 5.69874 4.37419L4.87623 0.812637C4.73422 0.321913 4.32227 0.175468 3.81279 0.158365" fill="#F2AE14"/>
</svg>
